%FSDAX44Y44*%
%MOIN*%
%SFA1B1*%

%IPPOS*%
%ADD75C,0.064960*%
%ADD128O,0.064960X0.022050*%
%ADD129R,0.064960X0.022050*%
%ADD130R,0.068900X0.076770*%
%ADD131R,0.045280X0.049210*%
%ADD132R,0.045280X0.023620*%
%ADD133R,0.045280X0.023620*%
%ADD134R,0.049210X0.045280*%
%ADD135R,0.023620X0.045280*%
%ADD136R,0.023620X0.045280*%
%ADD137R,0.053150X0.045280*%
%ADD138R,0.064960X0.183070*%
%ADD139R,0.163390X0.084650*%
%ADD140R,0.068900X0.017720*%
%ADD141R,0.017720X0.068900*%
%ADD142R,0.021650X0.025590*%
%ADD143R,0.029530X0.092520*%
%ADD144R,0.029530X0.092520*%
%ADD145R,0.092520X0.029530*%
%ADD146R,0.092520X0.029530*%
%ADD147O,0.080710X0.021650*%
%ADD148R,0.080710X0.021650*%
%ADD149R,0.064960X0.022280*%
%ADD150R,0.090550X0.021650*%
%ADD151R,0.090550X0.021650*%
%ADD152R,0.104330X0.033470*%
%ADD153C,0.030910*%
%ADD154R,0.025590X0.021650*%
%ADD155R,0.029530X0.098430*%
%ADD156R,0.039370X0.045280*%
%ADD157R,0.039370X0.045280*%
%ADD158R,0.043310X0.041340*%
%ADD159R,0.043310X0.041340*%
%ADD160R,0.062990X0.027560*%
%ADD161R,0.062990X0.027560*%
%ADD162R,0.104330X0.055120*%
%ADD163R,0.100390X0.037400*%
%ADD164R,0.068900X0.053150*%
%ADD165R,0.120080X0.218500*%
%ADD166R,0.029530X0.057090*%
%ADD167R,0.076770X0.092520*%
%ADD168R,0.088580X0.124020*%
%ADD169R,0.037400X0.084650*%
%ADD170R,0.064960X0.064960*%
%ADD171R,0.115910X0.155910*%
%ADD172R,0.076770X0.068900*%
%ADD173R,0.068900X0.112210*%
%ADD174R,0.127950X0.072840*%
%ADD175R,0.080710X0.080710*%
%ADD176R,0.163390X0.053150*%
%ADD177R,0.057090X0.070870*%
%ADD178R,0.068900X0.045280*%
%ADD179R,0.250000X0.218500*%
%ADD180C,0.064960*%
%ADD181C,0.057090*%
%ADD182C,0.070870*%
%ADD183C,0.072840*%
%ADD184C,0.155510*%
%ADD185C,0.068900*%
%ADD186R,0.068900X0.068900*%
%ADD187C,0.070910*%
%ADD188C,0.065910*%
%ADD189R,0.065910X0.065910*%
%ADD190R,0.255910X0.255910*%
%ADD191C,0.064910*%
%ADD192C,0.084650*%
%ADD193C,0.110240*%
%ADD194R,0.064960X0.064960*%
%ADD195C,0.122050*%
%ADD196C,0.193310*%
%ADD197R,0.072440X0.072440*%
%ADD198C,0.072440*%
%ADD199C,0.210630*%
%ADD200C,0.190950*%
%ADD201C,0.055120*%
%ADD202R,0.055120X0.055120*%
%ADD203C,0.104330*%
%ADD204C,0.049210*%
%ADD205C,0.031500*%
%ADD206C,0.027170*%
%ADD207C,0.055910*%
%LNpcb1-1*%
%LPD*%
G54D75*
X00011525Y00036139D03*
X00012525D03*
X00013525D03*
X00014025Y00037139D03*
X00013025D03*
X00012025D03*
X00011025D03*
G54D128*
X00007710Y00051400D03*
Y00051655D03*
Y00051911D03*
Y00052167D03*
X00009600D03*
Y00051911D03*
Y00051655D03*
G54D129*
X00009600Y00051400D03*
G54D130*
X00012248Y00043800D03*
Y00044800D03*
Y00045800D03*
Y00046800D03*
Y00047800D03*
X00013351D03*
Y00046800D03*
Y00045800D03*
Y00044800D03*
Y00043800D03*
Y00048800D03*
X00012248D03*
X00016048Y00057400D03*
X00017151D03*
X00022248Y00055800D03*
X00023351D03*
X00005951Y00069400D03*
X00004848D03*
X00050648Y00039800D03*
X00051751D03*
X00051151Y00037000D03*
X00050048D03*
G54D131*
X00036800Y00041065D03*
X00043000D03*
X00049400Y00040865D03*
Y00040134D03*
Y00039465D03*
X00052200Y00040665D03*
X00052800Y00035934D03*
Y00035265D03*
X00055000Y00035265D03*
Y00035934D03*
X00057856Y00035926D03*
Y00035257D03*
X00059800Y00035665D03*
Y00036334D03*
X00057200Y00038465D03*
Y00039134D03*
X00061400Y00040065D03*
Y00040734D03*
X00065600Y00032134D03*
Y00031465D03*
Y00041065D03*
X00063400Y00040934D03*
X00062800Y00040934D03*
Y00040265D03*
X00063400Y00040265D03*
X00061600Y00039134D03*
Y00038465D03*
Y00037734D03*
Y00037065D03*
X00064400Y00042865D03*
Y00043534D03*
X00065200D03*
Y00042865D03*
X00065600Y00041734D03*
X00055200Y00052465D03*
Y00053134D03*
X00062855Y00056637D03*
Y00057306D03*
X00064455D03*
Y00056637D03*
X00064200Y00061265D03*
Y00061934D03*
Y00062665D03*
Y00063334D03*
X00064800Y00064065D03*
Y00064734D03*
X00064400Y00066465D03*
Y00067134D03*
Y00067865D03*
X00065000Y00062534D03*
Y00061865D03*
X00064400Y00068534D03*
X00065310Y00071296D03*
Y00071966D03*
X00066110D03*
Y00071296D03*
X00066910D03*
Y00071966D03*
X00058200Y00068534D03*
Y00067865D03*
Y00067134D03*
Y00066465D03*
X00059800Y00066865D03*
Y00067534D03*
X00059600Y00062334D03*
Y00061665D03*
X00056000Y00063465D03*
Y00064134D03*
X00058759Y00061322D03*
Y00060652D03*
X00059400Y00059934D03*
Y00059265D03*
X00055800Y00056534D03*
Y00055865D03*
X00054800Y00055865D03*
Y00056534D03*
X00053400Y00062665D03*
Y00063334D03*
X00052800Y00063265D03*
Y00063934D03*
X00053600Y00066865D03*
Y00067534D03*
X00051600Y00068065D03*
X00052400Y00060334D03*
Y00059665D03*
X00052800Y00056534D03*
Y00055865D03*
X00053800D03*
Y00056534D03*
X00049600Y00055134D03*
X00048200Y00058865D03*
Y00059534D03*
X00049600Y00054465D03*
X00049400Y00048534D03*
Y00047865D03*
Y00044534D03*
Y00043865D03*
Y00043134D03*
Y00042465D03*
Y00041534D03*
X00052200Y00041334D03*
X00043000Y00041734D03*
Y00043665D03*
Y00044334D03*
X00036800Y00041734D03*
X00030400D03*
Y00043865D03*
Y00044534D03*
Y00041065D03*
X00024000Y00041734D03*
X00022733Y00042172D03*
Y00042842D03*
X00023400Y00044265D03*
Y00044934D03*
Y00046065D03*
Y00046734D03*
X00022800Y00046534D03*
Y00045865D03*
X00024000Y00044334D03*
Y00043665D03*
Y00041065D03*
X00020933Y00041442D03*
X00020333D03*
X00019733D03*
X00019133D03*
X00017000Y00043265D03*
Y00043934D03*
X00016800Y00044665D03*
Y00045334D03*
X00019133Y00040772D03*
X00019733D03*
X00020333D03*
X00020933D03*
X00012000Y00041734D03*
X00011000D03*
X00009381Y00041733D03*
Y00041063D03*
X00011000Y00041065D03*
X00012000D03*
X00014400Y00054465D03*
X00017800Y00054734D03*
Y00054065D03*
X00020600Y00053734D03*
Y00053065D03*
X00026000Y00055665D03*
Y00056334D03*
X00025000Y00058265D03*
Y00058934D03*
X00026200Y00061465D03*
X00026800D03*
X00027400D03*
X00028000D03*
X00028600D03*
X00029400Y00061065D03*
X00030600Y00058534D03*
X00031200Y00058469D03*
Y00057800D03*
X00030600Y00057865D03*
X00036600Y00064465D03*
Y00065134D03*
X00037200Y00064865D03*
Y00065534D03*
X00038400D03*
Y00064865D03*
X00035600Y00065865D03*
Y00066534D03*
X00036400Y00068265D03*
X00047600Y00059534D03*
Y00058865D03*
X00051600Y00068734D03*
X00040600Y00069865D03*
Y00070534D03*
X00040000Y00071065D03*
Y00071734D03*
X00036000Y00070934D03*
Y00070265D03*
X00036400Y00068934D03*
X00030000Y00069665D03*
Y00070334D03*
X00034000Y00066734D03*
Y00066065D03*
X00029400Y00061734D03*
X00028600Y00062134D03*
X00028000D03*
X00027400D03*
X00026800D03*
X00026200D03*
X00019600Y00061134D03*
Y00060465D03*
X00019000Y00060665D03*
Y00061334D03*
X00019600Y00058334D03*
Y00057665D03*
X00017800Y00056534D03*
Y00055865D03*
X00014400Y00055134D03*
X00010600Y00065065D03*
Y00065734D03*
Y00067065D03*
Y00067734D03*
X00009000Y00061334D03*
Y00060665D03*
Y00059734D03*
Y00059065D03*
X00007800D03*
Y00059734D03*
Y00060465D03*
Y00061134D03*
X00009600Y00058134D03*
X00010200D03*
Y00057465D03*
X00009600D03*
X00009800Y00056134D03*
Y00055465D03*
X00010400Y00055534D03*
Y00054865D03*
X00013000Y00056665D03*
X00013600Y00056665D03*
Y00057334D03*
X00013000Y00057334D03*
X00009800Y00054734D03*
Y00054065D03*
X00010800Y00052134D03*
Y00051465D03*
X00006800Y00051665D03*
Y00052334D03*
X00006000D03*
Y00051665D03*
G54D132*
X00037130Y00038600D03*
Y00038915D03*
Y00039229D03*
Y00039544D03*
X00037800D03*
Y00039229D03*
Y00038915D03*
X00039330Y00038829D03*
Y00039144D03*
Y00038515D03*
Y00038200D03*
X00040000Y00038515D03*
Y00038829D03*
Y00039144D03*
X00043530Y00039229D03*
Y00039544D03*
Y00038915D03*
Y00038600D03*
X00044200Y00038915D03*
Y00039229D03*
Y00039544D03*
X00045730Y00039144D03*
Y00038829D03*
Y00038515D03*
Y00038200D03*
X00046400Y00038515D03*
Y00038829D03*
Y00039144D03*
X00023600Y00048047D03*
Y00048362D03*
X00022930D03*
Y00048047D03*
X00023330Y00049200D03*
Y00049515D03*
Y00049829D03*
Y00050144D03*
X00024000D03*
Y00049829D03*
Y00049515D03*
X00024930Y00050400D03*
Y00050715D03*
Y00051029D03*
Y00051344D03*
X00025600D03*
Y00051029D03*
Y00050715D03*
X00023600Y00047732D03*
X00022930D03*
Y00047417D03*
G54D133*
X00037800Y00038600D03*
X00040000Y00038200D03*
X00044200Y00038600D03*
X00046400Y00038200D03*
X00025600Y00050400D03*
X00024000Y00049200D03*
X00023600Y00047417D03*
G54D134*
X00021465Y00037800D03*
Y00038400D03*
X00022134D03*
Y00037800D03*
X00021867Y00042507D03*
X00021198D03*
X00021598Y00043507D03*
X00022267D03*
X00028465Y00049600D03*
X00029134D03*
X00029865Y00049400D03*
X00030534D03*
X00030134Y00053600D03*
X00029465D03*
X00029334Y00056400D03*
X00028665D03*
X00030265D03*
Y00057000D03*
X00030934D03*
Y00056400D03*
X00034665Y00062600D03*
X00035334D03*
X00035534Y00063800D03*
X00034865D03*
X00039265Y00064400D03*
X00039934D03*
Y00065200D03*
Y00065800D03*
X00039265D03*
X00039265Y00065200D03*
X00037734Y00072400D03*
X00037065D03*
X00033974Y00072352D03*
Y00071752D03*
X00033304D03*
Y00072352D03*
X00030734Y00072000D03*
X00030065D03*
X00032265Y00067800D03*
X00032934D03*
X00032334Y00067200D03*
X00031665D03*
X00023534Y00066800D03*
X00022865D03*
X00024465Y00060800D03*
Y00060200D03*
Y00059600D03*
X00025134D03*
Y00060200D03*
Y00060800D03*
X00025665Y00049600D03*
X00026334D03*
X00014534Y00058400D03*
Y00059000D03*
Y00060000D03*
Y00060600D03*
X00019065Y00051200D03*
X00019734D03*
X00020067Y00050307D03*
X00019398D03*
X00018467Y00043507D03*
X00017798D03*
X00019398Y00042507D03*
X00020067D03*
X00014934Y00042600D03*
Y00042000D03*
X00014265D03*
Y00042600D03*
X00011534Y00050000D03*
X00010865D03*
Y00050800D03*
X00011534D03*
X00011534Y00057800D03*
Y00058400D03*
X00010865D03*
Y00057800D03*
X00012265Y00058400D03*
Y00059000D03*
Y00059600D03*
Y00060200D03*
X00012934D03*
Y00059600D03*
Y00059000D03*
Y00058400D03*
X00013865D03*
Y00059000D03*
Y00060000D03*
Y00060600D03*
X00012734Y00060800D03*
X00012734Y00061400D03*
X00012065D03*
Y00060800D03*
X00017865Y00062800D03*
X00018534D03*
X00009934Y00068400D03*
X00009265D03*
X00007934Y00068800D03*
X00007665Y00069600D03*
X00008334D03*
X00008534Y00068200D03*
X00007865D03*
X00007865Y00063800D03*
X00008534D03*
X00008665Y00064400D03*
X00009334D03*
X00008934Y00062000D03*
X00008265D03*
X00012065D03*
X00012734D03*
X00012534Y00062600D03*
X00011865D03*
X00007265Y00068800D03*
X00004934Y00058000D03*
X00004265D03*
Y00057200D03*
X00004934D03*
X00013465Y00039800D03*
X00014134D03*
X00043065Y00035000D03*
X00043734D03*
X00049865Y00036200D03*
X00050534D03*
X00053865Y00036800D03*
Y00037400D03*
X00054534D03*
Y00036800D03*
X00051534Y00040800D03*
X00050865D03*
X00055665Y00037400D03*
X00056334D03*
X00057265Y00037800D03*
X00057934D03*
X00062134Y00042400D03*
X00064065Y00041600D03*
X00064734D03*
X00061465Y00042400D03*
X00061334Y00043600D03*
X00060665D03*
X00057334D03*
Y00043000D03*
X00056665D03*
Y00043600D03*
X00056134Y00045000D03*
X00056134Y00045600D03*
X00055465D03*
X00055465Y00045000D03*
X00053934Y00052400D03*
X00053265D03*
X00052134Y00054600D03*
X00051465D03*
X00052865Y00042400D03*
X00053534D03*
X00043134Y00049200D03*
X00042465D03*
X00048865Y00058800D03*
X00049534D03*
X00054065Y00059400D03*
X00054734D03*
X00055065Y00054800D03*
X00055734D03*
X00057265Y00056400D03*
X00057934D03*
X00061465Y00061200D03*
X00062134D03*
X00062334Y00066400D03*
X00061665D03*
X00066465Y00070400D03*
X00067134D03*
X00056134Y00066400D03*
X00055465D03*
X00054862Y00062400D03*
X00056624Y00062387D03*
X00057293D03*
X00053134Y00069000D03*
X00052465D03*
X00052334Y00062600D03*
X00051665D03*
X00050134D03*
X00049465D03*
X00054192Y00062400D03*
G54D135*
X00037114Y00035000D03*
X00037429D03*
X00037744D03*
Y00035669D03*
X00037429D03*
X00037114D03*
X00036800D03*
X00033344D03*
X00033029D03*
X00032715D03*
X00032400D03*
X00032715Y00035000D03*
X00033029D03*
X00033344D03*
X00018400Y00049730D03*
X00018085D03*
X00017770D03*
X00017455D03*
Y00050400D03*
X00017770D03*
X00018085D03*
G54D136*
X00036800Y00035000D03*
X00032400D03*
X00018400Y00050400D03*
G54D137*
X00025600Y00061406D03*
Y00062193D03*
X00034800Y00066006D03*
Y00066793D03*
X00037800Y00065593D03*
Y00064806D03*
X00062200Y00041006D03*
Y00041793D03*
G54D138*
X00015400Y00043926D03*
Y00047273D03*
G54D139*
X00044889Y00064200D03*
Y00065578D03*
X00041188D03*
Y00064200D03*
G54D140*
X00022098Y00044935D03*
X00022098Y00045132D03*
Y00045329D03*
Y00045526D03*
X00022098Y00045723D03*
Y00045919D03*
X00022098Y00046116D03*
Y00046313D03*
Y00046510D03*
Y00046707D03*
X00022098Y00046904D03*
Y00047101D03*
X00022098Y00047297D03*
Y00047494D03*
X00022098Y00047691D03*
Y00047888D03*
X00017688D03*
Y00047691D03*
Y00047494D03*
Y00047297D03*
Y00047101D03*
Y00046904D03*
Y00046707D03*
Y00046510D03*
Y00046313D03*
Y00046116D03*
Y00045919D03*
Y00045723D03*
Y00045526D03*
Y00045329D03*
Y00045132D03*
Y00044935D03*
X00029214Y00057717D03*
Y00057914D03*
Y00058111D03*
Y00058307D03*
Y00058504D03*
Y00058701D03*
Y00058898D03*
Y00059095D03*
Y00059292D03*
Y00059489D03*
Y00059685D03*
Y00059882D03*
X00025985D03*
Y00059685D03*
Y00059489D03*
Y00059292D03*
Y00059095D03*
Y00058898D03*
Y00058701D03*
Y00058504D03*
Y00058307D03*
Y00058111D03*
Y00057914D03*
Y00057717D03*
X00053185Y00040882D03*
Y00040685D03*
Y00040489D03*
Y00040292D03*
Y00040095D03*
Y00039898D03*
Y00039701D03*
Y00039504D03*
Y00039307D03*
Y00039111D03*
Y00038914D03*
Y00038717D03*
X00056414D03*
Y00038914D03*
Y00039111D03*
Y00039307D03*
Y00039504D03*
Y00039701D03*
Y00039898D03*
Y00040095D03*
Y00040292D03*
Y00040489D03*
Y00040685D03*
Y00040882D03*
X00051459Y00059481D03*
Y00059737D03*
Y00059992D03*
Y00060248D03*
Y00060504D03*
Y00060760D03*
Y00061016D03*
Y00061272D03*
Y00061528D03*
X00049215D03*
Y00061272D03*
Y00061016D03*
Y00060760D03*
Y00060504D03*
Y00060248D03*
Y00059992D03*
Y00059737D03*
Y00059481D03*
Y00061784D03*
X00051459D03*
G54D141*
X00020976Y00044207D03*
X00021173D03*
X00021370D03*
Y00048616D03*
X00021173D03*
X00020976D03*
X00027895Y00057185D03*
X00028092D03*
X00028289D03*
X00028485D03*
X00028682D03*
Y00060414D03*
X00028485D03*
X00028289D03*
X00028092D03*
X00027895D03*
X00027698D03*
X00027501D03*
X00027304D03*
X00027107D03*
X00026911D03*
X00026714D03*
X00026517D03*
Y00057185D03*
X00026714D03*
X00026911D03*
X00027107D03*
X00027304D03*
X00027501D03*
X00027698D03*
X00020779Y00048616D03*
X00020582D03*
X00020385D03*
X00020188D03*
X00019992D03*
X00019795D03*
X00019598D03*
X00019401D03*
X00019204D03*
X00019007D03*
X00018810D03*
X00018614D03*
X00018417D03*
Y00044207D03*
X00018614D03*
X00018810D03*
X00019007D03*
X00019204D03*
X00019401D03*
X00019598D03*
X00019795D03*
X00019992D03*
X00020188D03*
X00020385D03*
X00020582D03*
X00020779D03*
X00053717Y00038185D03*
X00053914D03*
X00054111D03*
X00054307D03*
X00054504D03*
X00054701D03*
X00054898D03*
X00055095D03*
X00055292D03*
X00055489D03*
X00055685D03*
X00055882D03*
Y00041414D03*
X00055685D03*
X00055489D03*
X00055292D03*
X00055095D03*
X00054898D03*
X00054701D03*
X00054504D03*
X00054307D03*
X00054111D03*
X00053914D03*
X00053717D03*
G54D142*
X00060472Y00035111D03*
X00060728D03*
X00060984D03*
Y00035859D03*
X00060728D03*
X00060472D03*
X00054807Y00062871D03*
Y00063619D03*
X00054552D03*
X00054296D03*
Y00062871D03*
G54D143*
X00015404Y00054032D03*
X00015904D03*
X00016404D03*
X00016904D03*
X00016404Y00056079D03*
X00015904D03*
X00015404D03*
X00009704Y00065232D03*
X00009204D03*
X00008704D03*
X00008204D03*
Y00067279D03*
X00008704D03*
X00009204D03*
X00009850Y00061423D03*
X00010350D03*
X00010850D03*
X00011350D03*
Y00059376D03*
X00010850D03*
X00010350D03*
X00030739Y00068729D03*
X00031239D03*
X00031739D03*
X00032239D03*
X00032739D03*
X00033239D03*
X00033739D03*
Y00070776D03*
X00033239D03*
X00032739D03*
X00032239D03*
X00031739D03*
X00031239D03*
G54D144*
X00016904Y00056079D03*
X00009704Y00067279D03*
X00009850Y00059376D03*
X00030739Y00070776D03*
G54D145*
X00011376Y00054050D03*
Y00054550D03*
X00013423D03*
Y00054050D03*
Y00055050D03*
Y00055550D03*
X00011376Y00055050D03*
G54D146*
X00011376Y00055550D03*
X00036966Y00070050D03*
Y00070550D03*
Y00071050D03*
Y00071550D03*
X00039033D03*
Y00071050D03*
Y00070550D03*
Y00070050D03*
G54D147*
X00015516Y00058800D03*
Y00059055D03*
Y00059311D03*
Y00059567D03*
Y00059823D03*
Y00060079D03*
Y00060335D03*
Y00060591D03*
Y00060847D03*
Y00061103D03*
Y00061359D03*
X00017800D03*
Y00061103D03*
Y00060847D03*
Y00060591D03*
Y00060335D03*
Y00060079D03*
Y00059823D03*
Y00059567D03*
Y00059311D03*
Y00059055D03*
Y00061615D03*
Y00061870D03*
Y00062126D03*
X00015516D03*
Y00061870D03*
Y00061615D03*
G54D148*
X00017800Y00058800D03*
G54D149*
X00035652Y00040330D03*
Y00040645D03*
Y00040960D03*
X00037482D03*
Y00040645D03*
Y00040330D03*
X00041852D03*
Y00040645D03*
Y00040960D03*
X00043882D03*
Y00040645D03*
Y00040330D03*
X00048252D03*
Y00040645D03*
Y00040960D03*
Y00041275D03*
Y00041590D03*
Y00041905D03*
Y00042220D03*
Y00042535D03*
Y00042850D03*
Y00043165D03*
Y00043480D03*
Y00043795D03*
Y00044110D03*
Y00044425D03*
Y00044740D03*
Y00045055D03*
Y00045370D03*
Y00045685D03*
Y00046000D03*
Y00046315D03*
Y00046629D03*
Y00046944D03*
Y00047259D03*
Y00047574D03*
Y00047889D03*
Y00048204D03*
Y00048519D03*
X00043882D03*
Y00048204D03*
X00041852D03*
Y00048519D03*
Y00047889D03*
Y00047574D03*
Y00047259D03*
Y00046944D03*
Y00046629D03*
Y00046315D03*
Y00046000D03*
Y00045685D03*
Y00045370D03*
Y00045055D03*
Y00044740D03*
Y00044425D03*
Y00044110D03*
Y00043795D03*
Y00043480D03*
Y00043165D03*
Y00042850D03*
Y00042535D03*
Y00042220D03*
Y00041905D03*
Y00041590D03*
Y00041275D03*
X00043882D03*
Y00041590D03*
Y00041905D03*
Y00042220D03*
Y00042535D03*
Y00042850D03*
Y00043165D03*
Y00043480D03*
Y00043795D03*
Y00044110D03*
Y00044425D03*
Y00044740D03*
Y00045055D03*
Y00045370D03*
Y00045685D03*
Y00046000D03*
Y00046315D03*
Y00046629D03*
Y00046944D03*
Y00047259D03*
Y00047574D03*
Y00047889D03*
X00037482Y00048204D03*
Y00048519D03*
X00035652D03*
Y00048204D03*
Y00047889D03*
Y00047574D03*
Y00047259D03*
Y00046944D03*
Y00046629D03*
Y00046315D03*
Y00046000D03*
Y00045685D03*
Y00045370D03*
Y00045055D03*
Y00044740D03*
Y00044425D03*
Y00044110D03*
Y00043795D03*
Y00043480D03*
Y00043165D03*
Y00042850D03*
Y00042535D03*
Y00042220D03*
Y00041905D03*
Y00041590D03*
Y00041275D03*
X00037482D03*
Y00041590D03*
Y00041905D03*
Y00042220D03*
Y00042535D03*
Y00042850D03*
Y00043165D03*
Y00043480D03*
Y00043795D03*
Y00044110D03*
Y00044425D03*
Y00044740D03*
Y00045055D03*
Y00045370D03*
Y00045685D03*
Y00046000D03*
Y00046315D03*
Y00046629D03*
Y00046944D03*
Y00047259D03*
Y00047574D03*
Y00047889D03*
X00031282Y00048204D03*
Y00048519D03*
X00029252D03*
Y00048204D03*
Y00047889D03*
Y00047574D03*
Y00047259D03*
Y00046944D03*
Y00046629D03*
Y00046315D03*
Y00046000D03*
Y00045685D03*
Y00045370D03*
Y00045055D03*
Y00044740D03*
Y00044425D03*
Y00044110D03*
Y00043795D03*
Y00043480D03*
Y00043165D03*
Y00042850D03*
Y00042535D03*
Y00042220D03*
Y00041905D03*
Y00041590D03*
Y00041275D03*
X00031282D03*
Y00041590D03*
Y00041905D03*
Y00042220D03*
Y00042535D03*
Y00042850D03*
Y00043165D03*
Y00043480D03*
Y00043795D03*
Y00044110D03*
Y00044425D03*
Y00044740D03*
Y00045055D03*
Y00045370D03*
Y00045685D03*
Y00046000D03*
Y00046315D03*
Y00046629D03*
Y00046944D03*
Y00047259D03*
Y00047574D03*
Y00047889D03*
Y00040960D03*
Y00040645D03*
Y00040330D03*
X00029252D03*
Y00040645D03*
Y00040960D03*
X00024882Y00041275D03*
Y00041590D03*
Y00041905D03*
Y00042220D03*
Y00042535D03*
Y00042850D03*
Y00043165D03*
Y00043480D03*
Y00043795D03*
Y00044110D03*
Y00044425D03*
Y00044740D03*
Y00045055D03*
Y00045370D03*
Y00045685D03*
Y00046000D03*
Y00046315D03*
Y00046629D03*
Y00046944D03*
Y00047259D03*
Y00047574D03*
Y00047889D03*
Y00040960D03*
Y00040645D03*
Y00040330D03*
Y00048204D03*
Y00048519D03*
G54D150*
X00063089Y00062104D03*
X00063289Y00067304D03*
X00057089D03*
G54D151*
X00063089Y00062360D03*
Y00062616D03*
Y00062872D03*
Y00063127D03*
Y00063383D03*
Y00063639D03*
Y00063895D03*
X00063289Y00067560D03*
Y00067816D03*
Y00068072D03*
Y00068328D03*
Y00068583D03*
Y00068839D03*
Y00069095D03*
X00060710D03*
Y00068839D03*
Y00068583D03*
X00057089D03*
Y00068839D03*
Y00069095D03*
Y00068327D03*
Y00068072D03*
Y00067816D03*
Y00067560D03*
X00060710D03*
Y00067304D03*
Y00067816D03*
Y00068072D03*
Y00068328D03*
X00060510Y00063895D03*
Y00063639D03*
Y00063383D03*
Y00063127D03*
Y00062872D03*
Y00062616D03*
Y00062360D03*
Y00062104D03*
X00054510Y00068583D03*
Y00068839D03*
Y00069095D03*
Y00068327D03*
Y00068072D03*
Y00067816D03*
Y00067560D03*
Y00067304D03*
G54D152*
X00068400Y00069231D03*
Y00069625D03*
Y00070018D03*
Y00070412D03*
Y00070806D03*
Y00071200D03*
Y00071593D03*
Y00071987D03*
G54D153*
X00041500Y00051800D03*
Y00052300D03*
Y00052800D03*
Y00053300D03*
Y00053800D03*
Y00054300D03*
X00042000D03*
X00042500D03*
X00043000D03*
X00043500D03*
X00044000D03*
X00044500D03*
Y00053800D03*
X00044000D03*
X00043500D03*
X00043000D03*
X00042500D03*
X00042000D03*
Y00053300D03*
X00042500D03*
X00043000D03*
X00043500D03*
X00044000D03*
X00044500D03*
Y00052800D03*
X00044000D03*
X00043500D03*
X00043000D03*
X00042500D03*
X00042000D03*
Y00052300D03*
X00042500D03*
X00043000D03*
X00043500D03*
X00044000D03*
X00044500D03*
Y00051800D03*
X00044000D03*
X00043500D03*
X00043000D03*
X00042500D03*
X00042000D03*
Y00054800D03*
Y00055300D03*
X00042500D03*
Y00055800D03*
Y00056300D03*
Y00056800D03*
Y00057300D03*
Y00057800D03*
Y00058300D03*
Y00058800D03*
Y00059300D03*
Y00059800D03*
Y00060300D03*
Y00060800D03*
Y00061300D03*
X00043000D03*
X00043500D03*
X00044000D03*
X00044500D03*
Y00060800D03*
X00044000D03*
X00043500D03*
X00043000D03*
Y00060300D03*
X00043500D03*
X00044000D03*
X00044500D03*
Y00059800D03*
X00044000D03*
X00043500D03*
X00043000D03*
Y00059300D03*
X00043500D03*
X00044000D03*
X00044500D03*
Y00058800D03*
X00044000D03*
X00043500D03*
X00043000D03*
Y00058300D03*
X00043500D03*
X00044000D03*
X00044500D03*
Y00057800D03*
X00044000D03*
X00043500D03*
X00043000D03*
Y00057300D03*
X00043500D03*
X00044000D03*
X00044500D03*
Y00056800D03*
X00044000D03*
X00043500D03*
X00043000D03*
Y00056300D03*
X00043500D03*
X00044000D03*
Y00055800D03*
X00044500D03*
Y00055300D03*
X00044000D03*
X00043500D03*
Y00055800D03*
X00043000D03*
Y00055300D03*
Y00054800D03*
X00043500D03*
X00044000D03*
X00044500D03*
Y00056300D03*
X00042500Y00054800D03*
X00042000Y00057800D03*
Y00058300D03*
Y00058800D03*
Y00059300D03*
Y00059800D03*
Y00060300D03*
Y00060800D03*
Y00061300D03*
X00041500D03*
Y00060800D03*
Y00060300D03*
Y00059800D03*
Y00059300D03*
Y00058800D03*
X00041000D03*
Y00059300D03*
Y00059800D03*
Y00060300D03*
Y00060800D03*
Y00061300D03*
X00040500D03*
X00040000D03*
X00039500D03*
X00039000D03*
X00038500D03*
X00038000D03*
X00037500D03*
X00037000D03*
X00036500D03*
X00036000D03*
X00035500D03*
X00035000D03*
Y00060800D03*
X00035500D03*
X00036000D03*
X00036500D03*
X00037000D03*
X00037500D03*
X00038000D03*
X00038500D03*
X00039000D03*
X00039500D03*
X00040000D03*
X00040500D03*
Y00060300D03*
X00040000D03*
X00039500D03*
X00039000D03*
X00038500D03*
X00038000D03*
X00037500D03*
X00037000D03*
X00036500D03*
X00036000D03*
X00035500D03*
X00035000D03*
Y00059800D03*
X00035500D03*
X00036000D03*
X00036500D03*
X00037000D03*
X00037500D03*
X00038000D03*
X00038500D03*
X00039000D03*
X00039500D03*
X00040000D03*
X00040500D03*
Y00059300D03*
X00040000D03*
X00039500D03*
X00039000D03*
X00038500D03*
X00038000D03*
X00037500D03*
X00037000D03*
X00036500D03*
X00036000D03*
X00035500D03*
X00035000D03*
Y00058800D03*
X00035500D03*
X00036000D03*
X00036500D03*
X00037000D03*
X00037500D03*
X00038000D03*
X00037500Y00058300D03*
X00037000D03*
X00036500D03*
X00036000D03*
X00035500D03*
X00035000D03*
Y00057800D03*
X00035500D03*
X00036000D03*
X00036500D03*
X00037000D03*
Y00057300D03*
X00036500D03*
X00036000D03*
X00035500D03*
X00035000D03*
Y00056800D03*
X00035500D03*
X00036000D03*
X00036500D03*
X00037000D03*
Y00056300D03*
X00036500D03*
X00036000D03*
X00035500D03*
X00035000D03*
Y00055800D03*
X00035500D03*
X00036000D03*
X00036500D03*
X00037000D03*
Y00055300D03*
X00036500D03*
X00036000D03*
X00035500D03*
X00035000D03*
Y00054800D03*
X00035500D03*
X00036000D03*
X00036500D03*
X00037000D03*
X00037500D03*
X00038500Y00055300D03*
Y00055800D03*
Y00056300D03*
Y00056800D03*
Y00057300D03*
Y00057800D03*
X00039000D03*
Y00057300D03*
Y00056800D03*
Y00056300D03*
Y00055800D03*
Y00055300D03*
X00039500D03*
Y00055800D03*
Y00056300D03*
Y00056800D03*
Y00057300D03*
Y00057800D03*
X00040000D03*
Y00057300D03*
Y00056800D03*
Y00056300D03*
Y00055800D03*
Y00055300D03*
X00040500D03*
Y00055800D03*
Y00056300D03*
Y00056800D03*
Y00057300D03*
Y00057800D03*
X00041000D03*
Y00057300D03*
Y00056800D03*
Y00056300D03*
Y00055800D03*
Y00055300D03*
Y00054300D03*
Y00053800D03*
X00040500D03*
Y00053300D03*
Y00052800D03*
X00041000D03*
Y00053300D03*
X00040000D03*
Y00053800D03*
X00039500D03*
X00039000D03*
X00038500D03*
X00038000D03*
Y00054300D03*
X00037500D03*
X00037000D03*
X00036500D03*
X00036000D03*
X00035500D03*
X00035000D03*
Y00053800D03*
X00035500D03*
X00036000D03*
X00036500D03*
X00037000D03*
X00037500D03*
Y00053300D03*
X00038000D03*
X00038500D03*
Y00052800D03*
Y00052300D03*
X00039000D03*
Y00052800D03*
Y00053300D03*
X00039500D03*
Y00052800D03*
X00040000D03*
Y00052300D03*
X00040500D03*
Y00051800D03*
X00041000D03*
Y00052300D03*
X00039500D03*
Y00051800D03*
X00040000D03*
X00039000D03*
X00038500D03*
X00038000D03*
Y00052300D03*
Y00052800D03*
X00037500D03*
X00037000D03*
Y00053300D03*
X00036500D03*
X00036000D03*
X00035500D03*
X00035000D03*
Y00052800D03*
X00035500D03*
X00036000D03*
X00036500D03*
Y00052300D03*
X00037000D03*
X00037500D03*
Y00051800D03*
X00037000D03*
X00036500D03*
X00036000D03*
Y00052300D03*
X00035500D03*
X00035000D03*
Y00051800D03*
X00035500D03*
G54D154*
X00034635Y00064623D03*
Y00064879D03*
Y00065135D03*
X00035383D03*
Y00064879D03*
Y00064623D03*
G54D155*
X00058250Y00039221D03*
X00058750D03*
X00059250D03*
X00059750D03*
Y00043178D03*
X00059250D03*
X00058750D03*
X00058250D03*
G54D156*
X00013800Y00038127D03*
X00014174Y00039072D03*
X00034626Y00069927D03*
X00035000Y00070872D03*
X00051800Y00036072D03*
X00051426Y00035127D03*
X00053734Y00035196D03*
X00054108Y00036141D03*
X00056713Y00036155D03*
X00056339Y00035211D03*
G54D157*
X00013426Y00039072D03*
X00035374Y00069927D03*
X00052174Y00035127D03*
X00054482Y00035196D03*
X00057087Y00035211D03*
G54D158*
X00053337Y00053774D03*
X00054262Y00053400D03*
G54D159*
X00053337Y00053026D03*
G54D160*
X00009387Y00050078D03*
G54D161*
X00008540Y00050078D03*
Y00050452D03*
Y00050826D03*
X00009387D03*
Y00050452D03*
G54D162*
X00068292Y00031244D03*
Y00043350D03*
G54D163*
X00066540Y00032622D03*
Y00033114D03*
Y00033606D03*
Y00034098D03*
Y00034590D03*
Y00035082D03*
Y00035574D03*
Y00036066D03*
Y00036559D03*
Y00037051D03*
Y00037543D03*
Y00038035D03*
Y00038527D03*
Y00039019D03*
Y00039511D03*
Y00040003D03*
Y00040496D03*
Y00040988D03*
Y00041480D03*
Y00041972D03*
G54D164*
X00050400Y00037809D03*
Y00038990D03*
G54D165*
X00010800Y00045800D03*
X00006902D03*
G54D166*
X00048707Y00070560D03*
X00049101D03*
X00049495D03*
X00049889D03*
G54D167*
X00050833Y00071839D03*
X00047566D03*
G54D168*
X00010489Y00071688D03*
X00005528D03*
G54D169*
X00007516Y00070467D03*
X00008008D03*
X00008500D03*
X00008992D03*
X00009485D03*
X00007024D03*
X00006532D03*
G54D170*
X00030585Y00032040D03*
X00009400Y00042600D03*
X00009381Y00040087D03*
Y00038709D03*
X00011000Y00038711D03*
Y00040089D03*
X00012600D03*
Y00038711D03*
X00037600Y00067200D03*
X00031400Y00065400D03*
X00051800Y00057400D03*
X00057759Y00061387D03*
X00063000Y00059689D03*
Y00058311D03*
X00064400Y00058311D03*
Y00059689D03*
X00063000Y00072000D03*
X00056400D03*
G54D171*
X00004300Y00049800D03*
X00007300D03*
G54D172*
X00017800Y00041448D03*
Y00042551D03*
X00005200Y00061848D03*
X00004200D03*
Y00062951D03*
X00005200D03*
X00064400Y00071048D03*
Y00072151D03*
G54D173*
X00004248Y00040400D03*
X00005351D03*
Y00041800D03*
X00004248D03*
Y00043200D03*
X00005351D03*
Y00044600D03*
X00004248D03*
Y00046000D03*
X00005351D03*
Y00047400D03*
X00004248D03*
G54D174*
X00068186Y00044368D03*
G54D175*
X00068422Y00055431D03*
G54D176*
X00057497Y00044920D03*
Y00045865D03*
Y00046613D03*
Y00047538D03*
Y00048522D03*
Y00049506D03*
Y00050491D03*
Y00051475D03*
Y00052459D03*
Y00053443D03*
G54D177*
X00059623Y00044368D03*
G54D178*
X00021393Y00053095D03*
Y00053994D03*
Y00054894D03*
G54D179*
X00024267Y00053994D03*
G54D180*
X00031585Y00032040D03*
X00032585D03*
X00033585D03*
Y00033041D03*
X00032585D03*
X00031585D03*
X00030585D03*
X00034585D03*
X00035585D03*
X00036585D03*
X00037585D03*
X00038585D03*
X00039585D03*
X00040585D03*
Y00032040D03*
X00039585D03*
X00038585D03*
X00037585D03*
X00036585D03*
X00035585D03*
X00034585D03*
X00041585D03*
X00042585D03*
X00043585D03*
X00044585D03*
X00045585D03*
X00046585D03*
X00047585D03*
Y00033041D03*
X00046585D03*
X00045585D03*
X00044585D03*
X00043585D03*
X00042585D03*
X00041585D03*
X00048585D03*
X00049585D03*
Y00032040D03*
X00048585D03*
X00063104Y00043852D03*
Y00052947D03*
X00058950Y00055050D03*
X00058800Y00057400D03*
X00057800D03*
X00056800D03*
X00055800D03*
X00054800D03*
Y00058400D03*
X00055800D03*
X00056800D03*
X00057800D03*
X00058800D03*
X00059800D03*
Y00057400D03*
X00060800D03*
Y00058400D03*
X00057759Y00060387D03*
X00056759D03*
X00055759D03*
Y00061387D03*
X00056759D03*
X00054759D03*
X00053759D03*
Y00060387D03*
X00054759D03*
X00053800Y00058400D03*
X00052800D03*
X00051800D03*
X00052800Y00057400D03*
X00053800D03*
X00046600Y00067200D03*
X00045600D03*
X00044600D03*
X00043600D03*
X00042600D03*
X00041600D03*
Y00068200D03*
X00042600D03*
X00043600D03*
X00044600D03*
X00045600D03*
X00046600D03*
X00052400Y00071000D03*
Y00072000D03*
X00053400D03*
Y00071000D03*
X00054400D03*
Y00072000D03*
X00055400D03*
Y00071000D03*
X00056400D03*
X00059000D03*
Y00072000D03*
X00060000D03*
Y00071000D03*
X00061000D03*
Y00072000D03*
X00062000D03*
Y00071000D03*
X00063000D03*
X00040600Y00068200D03*
X00039600D03*
X00038600D03*
X00037600D03*
X00038600Y00067200D03*
X00039600D03*
X00040600D03*
X00031400Y00064400D03*
X00030400D03*
X00029400D03*
X00028400D03*
Y00065400D03*
X00029400D03*
X00030400D03*
X00027400D03*
X00026400D03*
X00025400D03*
X00024400D03*
X00023400D03*
X00022400D03*
Y00064400D03*
X00023400D03*
X00024400D03*
X00025400D03*
X00026400D03*
X00027400D03*
X00022800Y00059760D03*
Y00057839D03*
X00013400Y00042600D03*
X00012400D03*
X00011400D03*
X00010400D03*
G54D181*
X00048000Y00060389D03*
Y00061610D03*
G54D182*
X00041400Y00069400D03*
X00043400D03*
X00044600D03*
X00046600D03*
Y00072400D03*
X00044600D03*
X00043400D03*
X00041400D03*
G54D183*
X00004600Y00036800D03*
Y00038800D03*
X00006600D03*
Y00037800D03*
Y00036800D03*
G54D184*
X00021868Y00034425D03*
X00028480Y00034507D03*
X00023740D03*
X00021868Y00036661D03*
X00016695D03*
Y00034425D03*
X00028186Y00068952D03*
X00023013D03*
G54D185*
X00025618Y00035574D03*
Y00036362D03*
X00026602Y00035574D03*
X00020659Y00035492D03*
X00019675D03*
X00018888D03*
X00017903D03*
X00018888Y00036523D03*
X00019675D03*
X00020659D03*
X00024222Y00067885D03*
X00025206D03*
X00025993D03*
G54D186*
X00026602Y00036362D03*
X00017903Y00036523D03*
X00026977Y00067885D03*
G54D187*
X00014765Y00032309D03*
X00013765Y00031639D03*
X00010785Y00032309D03*
X00009785Y00031639D03*
X00048723Y00067415D03*
X00049707D03*
X00050200Y00068400D03*
X00049215D03*
G54D188*
X00056000Y00032000D03*
X00056900D03*
X00057800D03*
X00058700D03*
X00059600D03*
X00060050Y00033000D03*
X00059150D03*
X00058250D03*
X00057350D03*
X00056450D03*
X00056900Y00034000D03*
X00057800D03*
X00058700D03*
X00056000D03*
G54D189*
X00059600Y00034000D03*
G54D190*
X00052980Y00033000D03*
X00062820D03*
G54D191*
X00004200Y00055200D03*
X00006562D03*
Y00060000D03*
X00004200D03*
Y00064800D03*
X00006562D03*
G54D192*
X00004200Y00054235D03*
X00006877D03*
X00004829Y00056164D03*
X00004200Y00059035D03*
X00004829Y00060964D03*
X00006877Y00059035D03*
Y00063835D03*
X00004200D03*
X00004829Y00065764D03*
G54D193*
X00015325Y00034839D03*
X00009225D03*
G54D194*
X00010525Y00036139D03*
G54D195*
X00014525Y00033639D03*
X00010025D03*
G54D196*
X00066659Y00057480D03*
Y00067319D03*
G54D197*
X00066100Y00064581D03*
G54D198*
X00066100Y00060218D03*
Y00061309D03*
X00067218Y00060764D03*
Y00061854D03*
Y00062945D03*
Y00064035D03*
X00066100Y00063490D03*
Y00062400D03*
G54D199*
X00005463Y00034800D03*
G54D200*
X00005463Y00032437D03*
X00007234Y00033618D03*
G54D201*
X00008104Y00054200D03*
Y00056000D03*
Y00057800D03*
X00010000Y00062904D03*
X00014000Y00062095D03*
X00006504Y00062400D03*
X00006304Y00067200D03*
X00004504D03*
X00006104Y00057600D03*
G54D202*
X00008695Y00054200D03*
Y00056000D03*
Y00057800D03*
X00014000Y00061504D03*
X00010000Y00063495D03*
X00007095Y00062400D03*
X00006895Y00067200D03*
X00005095D03*
X00006695Y00057600D03*
G54D203*
X00020105Y00067784D03*
X00012231D03*
G54D204*
X00058950Y00044813D03*
G54D205*
X00022244Y00032173D03*
X00022165Y00033204D03*
X00030826Y00037984D03*
X00030755Y00040322D03*
X00034464Y00040354D03*
X00038000Y00040322D03*
X00038968Y00039669D03*
X00038700Y00039370D03*
X00041228Y00040236D03*
X00041212Y00040984D03*
X00043370Y00040315D03*
X00048866Y00040338D03*
X00048874Y00040960D03*
X00048944Y00039503D03*
X00051700Y00040378D03*
X00052637Y00040606D03*
X00053914Y00040764D03*
X00054307Y00040732D03*
X00053913Y00038692D03*
X00053795Y00035590D03*
X00054488Y00035700D03*
X00052393Y00035582D03*
X00051833Y00035535D03*
X00050960Y00036464D03*
X00054897Y00038779D03*
X00055291D03*
X00055874Y00039212D03*
X00055763Y00040921D03*
X00060937Y00040834D03*
X00060157Y00036031D03*
X00057118Y00035614D03*
X00065874Y00033622D03*
X00067236Y00033606D03*
Y00033118D03*
Y00032622D03*
X00066913Y00032173D03*
X00067779Y00030929D03*
X00065173Y00031464D03*
X00067244Y00034094D03*
X00068377Y00035937D03*
X00068350Y00039370D03*
X00068782Y00042200D03*
X00064513Y00048203D03*
X00064511Y00048992D03*
Y00049378D03*
Y00050165D03*
X00064519Y00050960D03*
Y00051346D03*
X00061700Y00051149D03*
X00061708Y00051937D03*
X00061716Y00052346D03*
X00061708Y00049181D03*
X00061700Y00047212D03*
X00061675Y00044856D03*
X00062196Y00042803D03*
X00064393Y00043968D03*
X00064503Y00044653D03*
Y00045441D03*
Y00046228D03*
X00064497Y00047022D03*
X00064503Y00047417D03*
X00065598Y00042173D03*
X00067665Y00041803D03*
X00068291Y00043700D03*
X00065842Y00040456D03*
X00064913Y00040472D03*
X00064937Y00040842D03*
X00063818Y00040669D03*
Y00041063D03*
X00063102Y00039881D03*
X00062031Y00040086D03*
Y00038905D03*
X00062039Y00038307D03*
Y00037724D03*
Y00037126D03*
X00063842Y00038165D03*
X00064889Y00037322D03*
X00065881Y00036787D03*
X00067204Y00037047D03*
X00067448Y00035929D03*
X00067905Y00035937D03*
X00068118Y00035566D03*
X00067661Y00035582D03*
X00067212Y00035574D03*
X00067189Y00038527D03*
X00064968Y00039322D03*
X00060976Y00041503D03*
X00061039Y00042393D03*
X00061338Y00043189D03*
X00059196Y00042338D03*
X00056212Y00043874D03*
X00055464Y00046015D03*
X00056480Y00047535D03*
X00056535Y00050472D03*
X00055204Y00053582D03*
X00063696Y00059689D03*
X00062241Y00063934D03*
X00061588Y00068734D03*
X00063826Y00071000D03*
Y00072102D03*
X00066291Y00070779D03*
X00067590Y00071992D03*
X00067535Y00069228D03*
X00055606Y00069165D03*
X00055582Y00064196D03*
Y00063590D03*
X00056291Y00062944D03*
X00055370Y00062102D03*
X00059126Y00061897D03*
X00059129Y00062334D03*
X00059118Y00064732D03*
X00059126Y00065259D03*
X00058779Y00064992D03*
X00058803Y00064472D03*
X00058755Y00065590D03*
X00059315Y00066865D03*
Y00067534D03*
X00060370Y00061252D03*
X00056291Y00055866D03*
X00053897Y00062897D03*
X00053362Y00063929D03*
X00052685Y00062252D03*
X00052000Y00061787D03*
X00049661Y00062110D03*
X00051606Y00067622D03*
X00053165Y00067535D03*
X00053172Y00066865D03*
X00052795Y00059527D03*
X00050889Y00059220D03*
X00049952Y00058905D03*
X00049685Y00059283D03*
X00048724Y00059393D03*
X00049913Y00061527D03*
X00050921Y00060921D03*
X00050007Y00055078D03*
X00050007Y00054465D03*
X00054590Y00054779D03*
X00053748Y00053220D03*
X00048921Y00048535D03*
X00048913Y00047842D03*
X00048889Y00044425D03*
X00048874Y00043771D03*
Y00042850D03*
X00048881Y00041905D03*
X00043377Y00048566D03*
X00041330Y00048519D03*
X00042377Y00044346D03*
Y00043771D03*
Y00042850D03*
X00042370Y00042070D03*
X00043354Y00042850D03*
X00038031Y00048472D03*
X00034866Y00048551D03*
X00034858Y00047322D03*
X00035252Y00044409D03*
Y00043779D03*
X00035173Y00042850D03*
X00038007Y00042842D03*
X00038015Y00043818D03*
Y00044370D03*
X00031850Y00048472D03*
X00029763Y00048519D03*
X00029464Y00049244D03*
X00028700Y00048377D03*
X00029000Y00051212D03*
X00029527Y00052944D03*
X00030000Y00053141D03*
X00031196Y00054055D03*
X00033637Y00054039D03*
X00030748Y00042842D03*
X00028740Y00044378D03*
X00025370Y00048566D03*
X00022645Y00049614D03*
X00027196Y00051181D03*
X00026685Y00051716D03*
X00024401Y00044307D03*
X00024409Y00043795D03*
X00024393Y00042842D03*
X00023259Y00042582D03*
X00022717Y00043394D03*
X00022347Y00043063D03*
X00021590Y00045937D03*
X00021606Y00046338D03*
X00023259Y00041118D03*
X00025606Y00037944D03*
X00020063Y00041929D03*
X00019733Y00041858D03*
X00019481Y00042055D03*
X00018834Y00043441D03*
X00019023Y00043685D03*
X00017992Y00043913D03*
X00017708Y00044464D03*
X00017189Y00045480D03*
Y00046141D03*
X00017000Y00042826D03*
X00015360Y00042600D03*
X00015362Y00042000D03*
X00020874Y00043157D03*
X00020756Y00047409D03*
X00020646Y00048008D03*
X00019771Y00047905D03*
X00019733Y00040252D03*
X00019433Y00040015D03*
X00019133Y00040259D03*
X00020339Y00040252D03*
X00020866D03*
X00018291Y00040811D03*
X00017795Y00040929D03*
X00017984Y00038842D03*
X00019173Y00038803D03*
X00019716Y00034692D03*
X00015543Y00040889D03*
X00015930Y00033557D03*
X00015892Y00032177D03*
X00015370Y00031377D03*
X00019086D03*
X00020428Y00031587D03*
X00020716Y00031330D03*
X00020281Y00033173D03*
X00013346Y00038645D03*
X00013480Y00040252D03*
X00010196Y00038711D03*
X00011299Y00033440D03*
X00004787Y00040039D03*
Y00040393D03*
Y00040771D03*
X00011535Y00041734D03*
X00012818Y00043629D03*
Y00043929D03*
Y00044645D03*
Y00044944D03*
Y00045645D03*
Y00045944D03*
Y00046637D03*
Y00046944D03*
Y00047637D03*
Y00047937D03*
X00019551Y00048118D03*
X00019629Y00050763D03*
X00020087Y00050724D03*
X00019000Y00050614D03*
X00020661Y00054165D03*
X00016409Y00054669D03*
X00015905D03*
X00021968Y00054921D03*
X00023897Y00055779D03*
X00024315D03*
X00024732D03*
X00025149D03*
X00025566D03*
X00025574Y00056488D03*
X00025401Y00058425D03*
Y00058826D03*
X00026566Y00058976D03*
X00026582Y00058582D03*
Y00057913D03*
X00026566Y00059748D03*
X00025787Y00060818D03*
X00027322Y00060992D03*
X00024464Y00061236D03*
X00022000Y00058795D03*
X00028646Y00058504D03*
X00028566Y00057716D03*
X00029755Y00057826D03*
X00030637Y00057385D03*
X00029789Y00056400D03*
X00028189Y00056590D03*
X00027992Y00060929D03*
X00034978Y00064879D03*
X00036590Y00065960D03*
X00037196D03*
X00038396D03*
X00035600Y00067037D03*
X00035086Y00068299D03*
X00039700Y00062118D03*
X00045488Y00072023D03*
X00051598Y00069181D03*
X00040149Y00070503D03*
X00040441Y00071023D03*
X00035448Y00071086D03*
X00034503Y00072346D03*
X00030739Y00071463D03*
X00030015Y00071511D03*
X00029535Y00071787D03*
X00029244Y00072031D03*
X00028700Y00071370D03*
X00028937Y00071007D03*
X00033858Y00068063D03*
X00034000Y00067196D03*
X00033992Y00065590D03*
X00034283Y00064881D03*
X00029000Y00061779D03*
X00025648Y00069416D03*
X00025149Y00070000D03*
X00021818Y00071511D03*
X00027055Y00066629D03*
X00026133Y00062629D03*
X00025598D03*
X00019677Y00070196D03*
X00020527Y00071527D03*
X00016889Y00071134D03*
X00017417Y00069913D03*
X00017774Y00068947D03*
X00016055Y00068944D03*
X00014240Y00068374D03*
X00014840Y00070750D03*
X00014865Y00071865D03*
X00014338Y00072338D03*
X00016118D03*
X00016200Y00066861D03*
X00018224Y00065665D03*
X00019374Y00066507D03*
X00019050Y00064200D03*
X00018598Y00063771D03*
X00017859Y00063778D03*
X00016110Y00062133D03*
Y00061795D03*
X00014834Y00061622D03*
X00014385Y00065000D03*
X00014960Y00061322D03*
X00016133Y00060874D03*
Y00060551D03*
X00018527Y00060591D03*
X00018582Y00060976D03*
X00018598Y00061354D03*
X00019614Y00058763D03*
X00019598Y00057228D03*
X00017803Y00055464D03*
Y00055141D03*
X00016401Y00055441D03*
X00015905D03*
X00015488Y00057212D03*
X00016393Y00058149D03*
X00012149Y00063102D03*
X00011401Y00062377D03*
X00011334Y00064598D03*
X00010188Y00064653D03*
X00012281Y00065600D03*
X00012291Y00066787D03*
X00013023Y00067362D03*
X00014012Y00066800D03*
X00014023Y00065600D03*
X00010175Y00067734D03*
X00007866Y00067826D03*
X00007818Y00062149D03*
X00008984Y00062496D03*
X00011357Y00060200D03*
X00013385Y00058401D03*
X00014078Y00057950D03*
X00014055Y00057480D03*
X00014047Y00056450D03*
X00014031Y00055050D03*
X00012629Y00056354D03*
X00012291Y00056401D03*
X00010511Y00056850D03*
X00010771Y00055551D03*
X00010779Y00055047D03*
X00007811Y00058637D03*
X00010740Y00054047D03*
X00014031Y00054550D03*
X00012818Y00049897D03*
X00012496Y00049606D03*
X00012818Y00048984D03*
Y00048661D03*
X00008666Y00051655D03*
X00007063Y00054889D03*
X00006228Y00056204D03*
X00005354Y00057196D03*
X00004779Y00047866D03*
X00004787Y00047401D03*
X00004779Y00046976D03*
X00004787Y00046377D03*
Y00046000D03*
Y00045637D03*
Y00044968D03*
Y00044598D03*
Y00044220D03*
Y00043590D03*
Y00043204D03*
Y00042842D03*
Y00042181D03*
Y00041803D03*
Y00041440D03*
X00008007Y00071086D03*
X00008503Y00071078D03*
X00011937Y00071393D03*
X00013661Y00069826D03*
X00004321Y00069400D03*
G54D206*
X00035165Y00040385D03*
X00035220Y00040881D03*
X00037976Y00040968D03*
X00042401Y00040598D03*
X00043401Y00040960D03*
X00043393Y00041874D03*
X00043401Y00043763D03*
X00043385Y00044362D03*
X00037968Y00041905D03*
X00035181Y00041881D03*
X00030803Y00041834D03*
X00030795Y00043834D03*
Y00044425D03*
X00028748Y00043787D03*
X00028763Y00042881D03*
X00028779Y00041944D03*
X00028748Y00041015D03*
X00028755Y00040330D03*
X00030787Y00040984D03*
X00024393Y00041842D03*
X00024401Y00040944D03*
X00024393Y00040322D03*
X00027252Y00040393D03*
X00027244Y00041000D03*
X00038448Y00062543D03*
G54D207*
X00049874Y00035472D03*
X00010622Y00056118D03*
M02*